<svg width="16" height="16" viewBox="0 0 20 20" fill="none" xmlns="http://www.w3.org/2000/svg">
<path d="M10 0C4.47687 0 0 4.47687 0 10C0 15.5231 4.47687 20 10 20C15.5225 20 20 15.5225 20 10C20 4.47687 15.5225 0 10 0ZM10 18.75C5.16752 18.75 1.25002 14.8325 1.25002 10C1.25002 5.16752 5.16752 1.25002 10 1.25002C14.8325 1.25002 18.75 5.16752 18.75 10C18.75 14.8325 14.8325 18.75 10 18.75Z" fill="#50E3C2"/>
<path d="M14.5627 6.49562L8.13267 12.8681L5.45704 10.2456C5.21078 10.0012 4.8108 10.0012 4.56455 10.2456C4.31768 10.49 4.31768 10.8856 4.56455 11.1294L7.6889 14.1912C7.94513 14.4169 8.32827 14.4419 8.58138 14.1912L15.4557 7.37938C15.702 7.13562 15.702 6.73938 15.4557 6.49562C15.2089 6.25187 14.8096 6.25187 14.5627 6.49562Z" fill="#50E3C2"/>
</svg>
